<svg xmlns="http://www.w3.org/2000/svg" id="canvas" viewBox="348.876 255.172 632.274 270.591"><path d="M 439.38,318.60 C 438.72 317.42, 437.71 316.53, 435.43 315.87 C 433.16 315.21, 431.44 314.86, 428.01 315.30 C 424.58 315.74, 422.34 316.45, 418.29 318.07 C 414.24 319.70, 411.98 320.88, 407.74 323.41 C 403.50 325.93, 401.01 327.53, 397.07 330.69 C 393.13 333.84, 390.94 335.58, 388.02 339.17 C 385.11 342.76, 383.64 344.78, 382.49 348.63 C 381.34 352.48, 381.29 354.70, 382.28 358.43 C 383.27 362.15, 384.69 363.96, 387.44 367.25 C 390.19 370.55, 392.35 371.97, 396.02 374.89 C 399.68 377.81, 402.13 379.18, 405.76 381.87 C 409.39 384.57, 411.55 385.94, 414.17 388.37 C 416.78 390.80, 417.82 392.02, 418.84 394.02 C 419.85 396.02, 420.01 396.36, 419.25 398.39 C 418.48 400.41, 417.78 401.64, 415.03 404.15 C 412.27 406.65, 410.02 408.27, 405.47 410.89 C 400.91 413.51, 397.71 415.01, 392.24 417.26 C 386.77 419.51, 383.37 420.71, 378.12 422.15 C 372.86 423.59, 369.91 424.07, 365.95 424.47 C 362.00 424.88, 360.27 424.43, 358.34 424.17 C 356.40 423.91, 356.18 424.06, 356.28 423.19 C 356.38 422.32, 357.10 421.90, 358.83 419.81 C 360.57 417.73, 361.53 416.00, 364.97 412.76 C 368.41 409.53, 370.82 407.53, 376.03 403.63 C 381.25 399.73, 384.49 397.62, 391.05 393.26 C 397.61 388.90, 401.32 386.68, 408.83 381.84 C 416.34 377.00, 420.54 374.42, 428.59 369.06 C 436.64 363.71, 440.96 360.86, 449.08 355.05 C 457.20 349.24, 461.43 346.18, 469.19 340.02 C 476.95 333.85, 480.92 330.54, 487.88 324.22 C 494.84 317.90, 498.23 314.54, 503.98 308.41 C 509.73 302.28, 512.44 299.14, 516.65 293.58 C 520.85 288.02, 522.58 285.32, 525.01 280.63 C 527.44 275.93, 528.47 273.84, 528.82 270.11 C 529.16 266.38, 528.62 264.37, 526.73 261.99 C 524.85 259.60, 522.89 258.34, 519.41 258.19 C 515.92 258.03, 513.73 258.95, 509.31 261.22 C 504.89 263.50, 502.48 265.19, 497.32 269.56 C 492.16 273.93, 489.14 276.80, 483.50 283.06 C 477.86 289.33, 474.65 293.19, 469.11 300.88 C 463.56 308.58, 460.56 313.13, 455.77 321.51 C 450.98 329.90, 448.59 334.54, 445.16 342.81 C 441.73 351.07, 440.29 355.39, 438.62 362.84 C 436.94 370.30, 436.44 373.94, 436.76 380.08 C 437.08 386.23, 437.77 389.13, 440.22 393.57 C 442.67 398.01, 444.73 399.91, 449.01 402.26 C 453.28 404.61, 456.11 405.11, 461.60 405.32 C 467.09 405.53, 470.29 404.97, 476.46 403.33 C 482.63 401.69, 486.12 400.22, 492.45 397.13 C 498.78 394.04, 502.20 391.90, 508.12 387.88 C 514.04 383.86, 517.10 381.38, 522.04 377.03 C 526.98 372.68, 529.34 370.24, 532.80 366.14 C 536.27 362.04, 537.89 360.10, 539.37 356.54 C 540.86 352.98, 541.08 351.02, 540.22 348.33 C 539.37 345.63, 537.88 344.09, 535.11 343.05 C 532.34 342.01, 530.04 342.02, 526.39 343.13 C 522.73 344.25, 520.61 345.74, 516.83 348.63 C 513.05 351.51, 510.96 353.60, 507.50 357.55 C 504.04 361.51, 502.14 363.94, 499.55 368.40 C 496.97 372.87, 495.69 375.40, 494.57 379.89 C 493.46 384.38, 493.08 386.89, 493.97 390.85 C 494.86 394.81, 495.98 396.95, 499.03 399.68 C 502.08 402.42, 504.40 403.40, 509.21 404.52 C 514.01 405.64, 516.95 405.69, 523.06 405.27 C 529.16 404.85, 532.72 404.12, 539.73 402.41 C 546.74 400.71, 550.67 399.39, 558.09 396.74 C 565.50 394.09, 569.54 392.36, 576.80 389.17 C 584.06 385.99, 587.89 384.11, 594.38 380.82 C 600.88 377.54, 604.11 375.74, 609.29 372.77 C 614.47 369.80, 616.87 368.48, 620.30 365.99 C 623.73 363.50, 625.18 362.54, 626.43 360.32 C 627.67 358.10, 627.44 356.69, 626.52 354.89 C 625.60 353.08, 624.31 351.92, 621.80 351.29 C 619.29 350.66, 617.36 350.74, 613.97 351.73 C 610.59 352.73, 608.68 354.02, 604.88 356.28 C 601.08 358.54, 598.95 359.97, 594.99 363.03 C 591.03 366.10, 588.84 367.96, 585.09 371.58 C 581.33 375.21, 579.34 377.38, 576.22 381.17 C 573.11 384.97, 571.60 386.99, 569.52 390.56 C 567.45 394.12, 566.30 395.88, 565.87 399.01 C 565.43 402.13, 565.89 403.94, 567.36 406.18 C 568.82 408.42, 570.30 409.71, 573.19 410.20 C 576.08 410.70, 578.08 410.27, 581.80 408.66 C 585.52 407.04, 587.44 405.51, 591.78 402.12 C 596.11 398.74, 598.52 396.59, 603.48 391.75 C 608.43 386.90, 611.20 383.97, 616.57 377.91 C 621.94 371.86, 624.85 368.31, 630.33 361.46 C 635.81 354.62, 638.75 350.79, 643.97 343.70 C 649.18 336.61, 651.80 332.78, 656.42 326.00 C 661.03 319.22, 663.28 315.71, 667.03 309.80 C 670.78 303.88, 672.92 300.79, 675.15 296.41 C 677.38 292.04, 678.39 290.00, 678.18 287.91 C 677.96 285.83, 676.12 284.80, 674.07 286.00 C 672.02 287.19, 670.86 289.29, 667.94 293.90 C 665.03 298.51, 663.11 302.21, 659.49 309.06 C 655.86 315.90, 653.60 320.34, 649.82 328.14 C 646.04 335.93, 643.85 340.33, 640.60 348.02 C 637.36 355.70, 635.71 359.71, 633.58 366.57 C 631.46 373.43, 630.60 376.78, 629.97 382.33 C 629.34 387.89, 629.26 390.38, 630.43 394.34 C 631.59 398.30, 632.83 400.23, 635.81 402.15 C 638.78 404.07, 641.14 404.34, 645.32 403.93 C 649.51 403.53, 651.88 402.47, 656.72 400.12 C 661.57 397.77, 664.26 395.91, 669.56 392.19 C 674.86 388.46, 677.83 385.95, 683.22 381.51 C 688.62 377.07, 691.59 374.30, 696.54 369.98 C 701.49 365.65, 704.50 363.13, 707.98 359.88 C 711.46 356.62, 713.13 355.24, 713.93 353.70 C 714.73 352.16, 713.42 351.38, 711.98 352.16 C 710.53 352.95, 709.02 354.42, 706.72 357.63 C 704.41 360.84, 702.72 363.77, 700.45 368.22 C 698.18 372.67, 696.87 375.53, 695.35 379.87 C 693.84 384.22, 692.88 386.37, 692.88 389.96 C 692.87 393.56, 693.45 395.41, 695.32 397.85 C 697.19 400.30, 698.89 401.59, 702.23 402.18 C 705.57 402.77, 707.75 402.07, 712.03 400.78 C 716.31 399.49, 718.73 398.30, 723.64 395.75 C 728.55 393.20, 731.34 391.40, 736.59 388.04 C 741.84 384.67, 744.83 382.49, 749.88 378.93 C 754.93 375.36, 758.00 373.08, 761.82 370.21 C 765.64 367.34, 767.60 366.15, 768.98 364.58 C 770.36 363.00, 769.69 362.08, 768.73 362.32 C 767.77 362.57, 766.13 363.37, 764.17 365.81 C 762.21 368.24, 760.88 370.74, 758.94 374.49 C 756.99 378.24, 755.65 380.75, 754.46 384.55 C 753.27 388.36, 752.59 390.38, 753.01 393.50 C 753.42 396.62, 754.30 398.33, 756.55 400.18 C 758.81 402.03, 760.69 402.85, 764.30 402.74 C 767.91 402.63, 770.08 401.55, 774.61 399.63 C 779.13 397.71, 781.70 396.21, 786.92 393.15 C 792.14 390.09, 795.24 388.01, 800.72 384.32 C 806.19 380.63, 809.25 378.32, 814.29 374.69 C 819.33 371.07, 822.31 368.99, 825.92 366.20 C 829.53 363.40, 831.29 362.21, 832.35 360.73 C 833.42 359.24, 832.46 358.37, 831.23 358.77 C 830.00 359.17, 828.39 360.14, 826.20 362.74 C 824.01 365.34, 822.47 367.93, 820.29 371.77 C 818.11 375.61, 816.65 378.09, 815.30 381.96 C 813.94 385.82, 813.09 387.92, 813.51 391.09 C 813.93 394.26, 814.98 396.07, 817.39 397.80 C 819.81 399.52, 821.80 400.05, 825.60 399.71 C 829.40 399.36, 831.65 398.21, 836.39 396.07 C 841.12 393.94, 843.90 392.30, 849.28 389.02 C 854.66 385.74, 857.74 383.54, 863.28 379.68 C 868.83 375.81, 871.91 373.48, 877.01 369.71 C 882.11 365.94, 885.08 363.69, 888.79 360.82 C 892.51 357.96, 894.30 356.72, 895.60 355.38 C 896.91 354.05, 896.03 353.09, 895.31 354.14 C 894.58 355.20, 893.86 356.62, 891.97 360.65 C 890.08 364.69, 888.78 367.93, 885.86 374.31 C 882.94 380.69, 881.05 384.77, 877.37 392.56 C 873.70 400.34, 871.64 404.72, 867.47 413.22 C 863.31 421.71, 861.10 426.29, 856.57 435.03 C 852.04 443.76, 849.60 448.43, 844.83 456.89 C 840.05 465.35, 837.55 469.73, 832.68 477.33 C 827.81 484.93, 825.22 488.72, 820.49 494.91 C 815.77 501.10, 813.30 504.04, 809.04 508.28 C 804.78 512.52, 802.44 514.13, 799.17 516.11 C 795.90 518.09, 794.45 518.23, 792.69 518.18 C 790.93 518.13, 791.01 517.85, 790.37 515.84 C 789.72 513.84, 789.03 512.26, 789.47 508.14 C 789.90 504.03, 790.29 501.03, 792.54 495.27 C 794.79 489.50, 796.41 485.91, 800.71 479.33 C 805.00 472.74, 807.85 469.09, 814.01 462.35 C 820.17 455.60, 823.91 452.06, 831.51 445.59 C 839.12 439.12, 843.50 435.87, 852.06 429.99 C 860.61 424.12, 865.39 421.32, 874.28 416.21 C 883.17 411.11, 887.90 408.69, 896.50 404.48 C 905.09 400.27, 910.04 398.22, 917.26 395.15 C 924.49 392.08, 927.77 391.08, 932.61 389.13 C 937.45 387.18, 939.87 386.56, 941.48 385.38 C 943.08 384.19, 942.63 383.01, 940.64 383.21 C 938.65 383.40, 936.41 384.48, 931.52 386.36 C 926.62 388.25, 923.38 389.43, 916.17 392.63 C 908.95 395.83, 904.04 398.03, 895.45 402.36 C 886.85 406.70, 882.11 409.14, 873.18 414.29 C 864.25 419.45, 859.43 422.25, 850.79 428.15 C 842.16 434.05, 837.73 437.30, 829.99 443.78 C 822.24 450.26, 818.45 453.79, 812.07 460.54 C 805.69 467.30, 802.73 470.93, 798.09 477.56 C 793.45 484.19, 791.56 487.72, 788.85 493.71 C 786.13 499.70, 785.20 502.66, 784.51 507.52 C 783.82 512.38, 783.83 514.99, 785.40 518.02 C 786.97 521.06, 789.15 522.38, 792.35 522.70 C 795.54 523.03, 797.56 522.07, 801.37 519.64 C 805.18 517.21, 807.13 515.17, 811.40 510.55 C 815.66 505.93, 818.01 502.92, 822.68 496.54 C 827.35 490.16, 829.91 486.34, 834.75 478.64 C 839.59 470.94, 842.09 466.54, 846.87 458.04 C 851.66 449.54, 854.09 444.86, 858.67 436.13 C 863.25 427.39, 865.49 422.81, 869.77 414.37 C 874.06 405.92, 876.17 401.56, 880.11 393.91 C 884.05 386.25, 886.18 382.34, 889.48 376.09 C 892.78 369.85, 894.78 367.05, 896.60 362.69 C 898.42 358.34, 899.14 356.50, 898.57 354.30 C 898.00 352.10, 896.28 351.11, 893.76 351.69 C 891.24 352.26, 889.77 354.18, 885.96 357.18 C 882.15 360.17, 879.65 362.77, 874.69 366.65 C 869.72 370.53, 866.66 372.83, 861.15 376.57 C 855.64 380.31, 852.50 382.41, 847.16 385.35 C 841.81 388.30, 838.88 389.65, 834.42 391.30 C 829.96 392.94, 827.73 393.12, 824.86 393.59 C 821.99 394.05, 821.16 394.15, 820.09 393.62 C 819.01 393.09, 819.19 392.77, 819.48 390.93 C 819.77 389.10, 820.08 387.55, 821.52 384.47 C 822.97 381.38, 824.52 379.09, 826.69 375.52 C 828.85 371.96, 830.92 369.80, 832.37 366.64 C 833.82 363.48, 834.36 361.60, 833.94 359.73 C 833.51 357.87, 832.45 356.80, 830.25 357.33 C 828.06 357.85, 826.63 359.54, 822.96 362.37 C 819.29 365.20, 816.80 367.76, 811.92 371.49 C 807.04 375.23, 803.98 377.50, 798.55 381.06 C 793.12 384.62, 789.95 386.58, 784.77 389.28 C 779.60 391.98, 776.86 393.17, 772.68 394.57 C 768.49 395.97, 766.46 395.95, 763.84 396.28 C 761.23 396.60, 760.52 396.79, 759.59 396.20 C 758.65 395.61, 758.88 395.20, 759.18 393.35 C 759.47 391.49, 759.76 390.00, 761.06 386.94 C 762.35 383.88, 763.75 381.57, 765.66 378.04 C 767.56 374.52, 769.49 372.43, 770.57 369.32 C 771.65 366.21, 771.85 364.24, 771.05 362.51 C 770.25 360.78, 768.99 359.88, 766.56 360.65 C 764.13 361.42, 762.70 363.38, 758.88 366.37 C 755.06 369.35, 752.36 371.96, 747.47 375.59 C 742.57 379.22, 739.57 381.34, 734.38 384.51 C 729.20 387.68, 726.32 389.29, 721.55 391.43 C 716.78 393.57, 714.24 394.36, 710.54 395.23 C 706.83 396.09, 705.24 395.85, 703.02 395.75 C 700.79 395.66, 700.24 395.84, 699.41 394.74 C 698.58 393.63, 698.58 392.81, 698.85 390.23 C 699.12 387.65, 699.29 385.65, 700.76 381.86 C 702.23 378.07, 703.87 375.45, 706.19 371.29 C 708.52 367.13, 710.60 364.59, 712.38 361.07 C 714.16 357.54, 715.20 355.68, 715.09 353.64 C 714.99 351.61, 713.91 350.32, 711.85 350.89 C 709.80 351.46, 708.40 353.22, 704.83 356.47 C 701.27 359.73, 698.81 362.74, 694.02 367.19 C 689.24 371.63, 686.27 374.36, 680.92 378.69 C 675.58 383.03, 672.53 385.43, 667.30 388.86 C 662.07 392.30, 659.26 393.89, 654.76 395.87 C 650.25 397.85, 648.03 398.36, 644.77 398.75 C 641.52 399.13, 640.49 398.94, 638.47 397.79 C 636.44 396.65, 635.62 396.07, 634.65 393.04 C 633.67 390.02, 633.19 387.79, 633.57 382.67 C 633.94 377.56, 634.59 374.16, 636.53 367.45 C 638.46 360.74, 640.05 356.73, 643.25 349.14 C 646.46 341.55, 648.65 337.15, 652.57 329.51 C 656.50 321.87, 658.99 317.56, 662.87 310.94 C 666.75 304.33, 669.15 300.91, 671.96 296.43 C 674.78 291.95, 676.31 290.40, 676.96 288.54 C 677.60 286.67, 676.31 285.91, 675.21 287.11 C 674.10 288.30, 673.62 290.30, 671.44 294.51 C 669.27 298.72, 667.79 302.17, 664.33 308.16 C 660.86 314.15, 658.63 317.68, 654.13 324.47 C 649.63 331.26, 647.01 335.07, 641.82 342.12 C 636.63 349.17, 633.68 352.98, 628.17 359.72 C 622.67 366.46, 619.72 369.97, 614.28 375.83 C 608.83 381.69, 606.00 384.55, 600.94 389.02 C 595.89 393.50, 593.30 395.44, 588.99 398.21 C 584.68 400.97, 582.47 401.65, 579.40 402.86 C 576.32 404.06, 575.20 404.03, 573.61 404.22 C 572.02 404.40, 571.76 404.58, 571.44 403.78 C 571.12 402.98, 571.42 402.32, 572.01 400.20 C 572.59 398.08, 572.74 396.38, 574.35 393.18 C 575.96 389.99, 577.24 387.85, 580.05 384.23 C 582.86 380.60, 584.80 378.45, 588.40 375.05 C 592.00 371.65, 594.17 369.87, 598.04 367.22 C 601.91 364.58, 604.11 363.40, 607.74 361.83 C 611.38 360.26, 613.41 360.18, 616.21 359.36 C 619.00 358.55, 620.16 358.35, 621.71 357.78 C 623.27 357.21, 623.81 356.55, 623.99 356.49 C 624.18 356.44, 623.95 356.33, 622.65 357.49 C 621.36 358.66, 620.56 359.88, 617.51 362.32 C 614.47 364.76, 612.34 366.55, 607.43 369.69 C 602.51 372.83, 599.32 374.69, 592.95 378.04 C 586.58 381.38, 582.77 383.27, 575.59 386.42 C 568.41 389.57, 564.38 391.28, 557.05 393.79 C 549.72 396.31, 545.79 397.53, 538.95 399.01 C 532.11 400.49, 528.57 401.00, 522.85 401.19 C 517.13 401.37, 514.42 400.99, 510.34 399.92 C 506.27 398.85, 504.74 397.88, 502.48 395.85 C 500.21 393.81, 499.65 392.70, 499.04 389.75 C 498.42 386.79, 498.46 384.87, 499.40 381.09 C 500.34 377.31, 501.36 374.87, 503.74 370.85 C 506.11 366.82, 507.97 364.47, 511.27 360.97 C 514.57 357.48, 516.79 355.67, 520.24 353.38 C 523.69 351.09, 525.80 350.53, 528.52 349.52 C 531.24 348.51, 532.36 348.33, 533.83 348.32 C 535.30 348.31, 535.68 348.22, 535.86 349.47 C 536.04 350.72, 536.00 351.74, 534.75 354.57 C 533.51 357.39, 532.66 359.63, 529.65 363.60 C 526.63 367.57, 524.37 370.11, 519.68 374.41 C 515.00 378.70, 511.97 381.17, 506.22 385.08 C 500.47 389.00, 497.07 391.06, 490.93 393.97 C 484.79 396.88, 481.34 398.19, 475.51 399.64 C 469.67 401.10, 466.67 401.44, 461.76 401.25 C 456.84 401.05, 454.59 400.58, 450.93 398.68 C 447.27 396.77, 445.65 395.50, 443.46 391.74 C 441.26 387.98, 440.40 385.54, 439.97 379.88 C 439.55 374.22, 439.83 370.66, 441.34 363.43 C 442.85 356.21, 444.19 351.91, 447.51 343.77 C 450.83 335.64, 453.18 331.02, 457.93 322.75 C 462.68 314.49, 465.69 309.97, 471.25 302.45 C 476.82 294.93, 480.06 291.13, 485.76 285.15 C 491.46 279.18, 494.60 276.47, 499.74 272.59 C 504.88 268.71, 507.53 267.45, 511.46 265.76 C 515.40 264.07, 517.10 264.31, 519.43 264.14 C 521.75 263.97, 522.19 263.80, 523.11 264.90 C 524.03 266.01, 524.33 266.82, 524.03 269.64 C 523.74 272.46, 523.61 274.57, 521.65 279.01 C 519.68 283.44, 518.13 286.27, 514.22 291.80 C 510.30 297.33, 507.66 300.52, 502.07 306.65 C 496.49 312.78, 493.14 316.15, 486.27 322.46 C 479.41 328.78, 475.47 332.08, 467.76 338.22 C 460.05 344.36, 455.84 347.40, 447.73 353.16 C 439.63 358.92, 435.31 361.74, 427.24 367.02 C 419.17 372.30, 414.96 374.84, 407.39 379.56 C 399.81 384.28, 396.08 386.44, 389.35 390.61 C 382.63 394.78, 379.32 396.75, 373.77 400.40 C 368.22 404.05, 365.63 405.69, 361.62 408.84 C 357.60 411.99, 355.58 413.15, 353.70 416.15 C 351.81 419.15, 351.55 421.22, 352.19 423.83 C 352.84 426.44, 354.05 428.09, 356.91 429.20 C 359.78 430.30, 362.04 429.93, 366.52 429.35 C 371.00 428.78, 373.84 427.92, 379.30 426.31 C 384.77 424.69, 388.16 423.52, 393.86 421.28 C 399.55 419.03, 402.83 417.70, 407.78 415.09 C 412.73 412.47, 415.22 411.16, 418.62 408.21 C 422.03 405.26, 423.68 403.67, 424.80 400.34 C 425.93 397.02, 425.61 394.79, 424.25 391.56 C 422.89 388.34, 421.06 387.02, 418.00 384.22 C 414.94 381.41, 412.67 380.25, 408.95 377.54 C 405.23 374.83, 402.85 373.44, 399.39 370.67 C 395.93 367.90, 394.00 366.44, 391.64 363.70 C 389.28 360.95, 388.39 359.65, 387.59 356.94 C 386.78 354.24, 386.72 353.08, 387.61 350.17 C 388.49 347.26, 389.49 345.51, 392.00 342.40 C 394.52 339.29, 396.52 337.50, 400.19 334.63 C 403.86 331.76, 406.33 330.18, 410.36 328.07 C 414.38 325.95, 416.61 325.04, 420.31 324.04 C 424.01 323.04, 425.95 323.31, 428.85 323.07 C 431.74 322.83, 432.81 323.10, 434.78 322.83 C 436.76 322.57, 437.80 322.61, 438.72 321.76 C 439.64 320.91, 440.04 319.77, 439.38 318.60" style="stroke: white; fill: white;"/><path d="M 975.63,392.92 C 976.83 392.99, 977.32 392.63, 977.79 392.38 C 978.27 392.13, 978.18 392.22, 978.03 391.68 C 977.87 391.13, 977.84 390.49, 977.03 389.66 C 976.22 388.82, 975.09 387.89, 973.96 387.51 C 972.84 387.12, 972.13 387.30, 971.39 387.74 C 970.66 388.17, 970.21 388.82, 970.29 389.68 C 970.37 390.54, 970.72 391.39, 971.79 392.04 C 972.86 392.68, 974.43 392.85, 975.63 392.92" style="stroke: white; fill: white;"/></svg>